<svg width="134" height="139" viewBox="0 0 134 139" fill="none" xmlns="http://www.w3.org/2000/svg">
<path fill-rule="evenodd" clip-rule="evenodd" d="M41.9075 3.32765C49.3739 -1.43155 59.2847 0.763035 64.0439 8.22939L130.937 113.174C135.697 120.64 133.502 130.551 126.036 135.31C118.569 140.069 108.658 137.875 103.899 130.408L37.0058 25.464C32.2466 17.9976 34.4412 8.08684 41.9075 3.32765ZM0.600006 121.897C0.600006 113.06 7.79535 105.865 16.6319 105.865C25.4685 105.865 32.6638 113.06 32.6638 121.897C32.6638 130.733 25.4685 137.929 16.6319 137.929C7.79535 137.929 0.600006 130.733 0.600006 121.897ZM40.5304 55.2562C35.7712 47.7899 25.8605 45.5953 18.3941 50.3545C10.9278 55.1137 8.73319 65.0245 13.4924 72.4908L50.7355 130.919C55.4947 138.385 65.4054 140.58 72.8718 135.821C80.3382 131.061 82.5327 121.151 77.7735 113.684L40.5304 55.2562Z" fill="white"/>
</svg>

