<svg width="103" height="103" viewBox="0 0 103 103" fill="none" xmlns="http://www.w3.org/2000/svg">
<g filter="url(#filter0_d)">
<path d="M40 36C40 34.1144 40 33.1716 40.5858 32.5858C41.1716 32 42.1144 32 44 32H59C60.8856 32 61.8284 32 62.4142 32.5858C63 33.1716 63 34.1144 63 36V51C63 52.8856 63 53.8284 62.4142 54.4142C61.8284 55 60.8856 55 59 55H44C42.1144 55 41.1716 55 40.5858 54.4142C40 53.8284 40 52.8856 40 51V36Z" fill="url(#paint0_linear)"/>
</g>
<g filter="url(#filter1_d)">
<path fill-rule="evenodd" clip-rule="evenodd" d="M48.8605 36.5719C49.6305 36.081 50.6527 36.3074 51.1436 37.0774L58.0429 47.9013C58.5338 48.6714 58.3074 49.6936 57.5374 50.1844C56.7673 50.6753 55.7451 50.4489 55.2542 49.6788L48.3549 38.855C47.8641 38.0849 48.0904 37.0627 48.8605 36.5719ZM44.6 48.801C44.6 47.8878 45.3403 47.1475 46.2535 47.1475C47.1667 47.1475 47.907 47.8878 47.907 48.801C47.907 49.7143 47.1667 50.4546 46.2535 50.4546C45.3403 50.4546 44.6 49.7143 44.6 48.801ZM48.7184 41.9278C48.2276 41.1577 47.2054 40.9314 46.4353 41.4222C45.6652 41.9131 45.4389 42.9353 45.9297 43.7053L49.771 49.7315C50.2618 50.5016 51.284 50.728 52.0541 50.2371C52.8242 49.7462 53.0505 48.7241 52.5596 47.954L48.7184 41.9278Z" fill="white"/>
</g>
<defs>
<filter id="filter0_d" x="0" y="0" width="103" height="103" filterUnits="userSpaceOnUse" color-interpolation-filters="sRGB">
<feFlood flood-opacity="0" result="BackgroundImageFix"/>
<feColorMatrix in="SourceAlpha" type="matrix" values="0 0 0 0 0 0 0 0 0 0 0 0 0 0 0 0 0 0 127 0" result="hardAlpha"/>
<feOffset dy="8"/>
<feGaussianBlur stdDeviation="20"/>
<feComposite in2="hardAlpha" operator="out"/>
<feColorMatrix type="matrix" values="0 0 0 0 0.0611111 0 0 0 0 0.557667 0 0 0 0 0.666667 0 0 0 0.2 0"/>
<feBlend mode="normal" in2="BackgroundImageFix" result="effect1_dropShadow"/>
<feBlend mode="normal" in="SourceGraphic" in2="effect1_dropShadow" result="shape"/>
</filter>
<filter id="filter1_d" x="36.6" y="31.3125" width="29.7023" height="30.184" filterUnits="userSpaceOnUse" color-interpolation-filters="sRGB">
<feFlood flood-opacity="0" result="BackgroundImageFix"/>
<feColorMatrix in="SourceAlpha" type="matrix" values="0 0 0 0 0 0 0 0 0 0 0 0 0 0 0 0 0 0 127 0" result="hardAlpha"/>
<feOffset dy="3"/>
<feGaussianBlur stdDeviation="4"/>
<feComposite in2="hardAlpha" operator="out"/>
<feColorMatrix type="matrix" values="0 0 0 0 0.0611111 0 0 0 0 0.557667 0 0 0 0 0.666667 0 0 0 1 0"/>
<feBlend mode="normal" in2="BackgroundImageFix" result="effect1_dropShadow"/>
<feBlend mode="normal" in="SourceGraphic" in2="effect1_dropShadow" result="shape"/>
</filter>
<linearGradient id="paint0_linear" x1="35.905" y1="11.0535" x2="66.2652" y2="12.8326" gradientUnits="userSpaceOnUse">
<stop stop-color="#108EAA"/>
<stop offset="1" stop-color="#12CDF5"/>
</linearGradient>
</defs>
</svg>
